<?xml version="1.0" encoding="UTF-8" standalone="no"?>
<svg
   version="1.1"
   id="Layer_1"
   x="0px"
   y="0px"
   width="64px"
   height="64px"
   viewBox="0 0 512 512"
   style="enable-background:new 0 0 512 512;"
   xml:space="preserve"
   sodipodi:docname="icon.svg"
   inkscape:version="1.1 (ce6663b3b7, 2021-05-25)"
   xmlns:inkscape="http://www.inkscape.org/namespaces/inkscape"
   xmlns:sodipodi="http://sodipodi.sourceforge.net/DTD/sodipodi-0.dtd"
   xmlns="http://www.w3.org/2000/svg"
   xmlns:svg="http://www.w3.org/2000/svg"><defs
   id="defs7" /><sodipodi:namedview
   id="namedview5"
   pagecolor="#ffffff"
   bordercolor="#666666"
   borderopacity="1.0"
   inkscape:pageshadow="2"
   inkscape:pageopacity="0.0"
   inkscape:pagecheckerboard="0"
   showgrid="false"
   inkscape:zoom="13.164939"
   inkscape:cx="50.474978"
   inkscape:cy="33.08029"
   inkscape:window-width="1920"
   inkscape:window-height="1016"
   inkscape:window-x="0"
   inkscape:window-y="27"
   inkscape:window-maximized="1"
   inkscape:current-layer="Layer_1"
   showguides="true"
   inkscape:guide-bbox="true"
   inkscape:lockguides="false" />

<g
   id="g5435"
   transform="matrix(1.3232092,0,0,1.3232092,-24.877528,12.044361)"><path
     d="m 74.115628,281.52869 q -21.12,0 -21.12,-16 0,-16 21.12,-16 h 39.040002 v -75.84 H 88.195628 q -21.44,0 -21.44,-16 0,-16 21.44,-16 h 56.960002 v 107.84 h 39.04 q 21.12,0 21.12,16 0,16 -21.12,16 z M 140.67563,82.168687 v 33.600003 h -37.76 V 82.168687 Z"
     style="font-weight:bold;font-size:320px;line-height:1.25;font-family:'Tlwg Mono';-inkscape-font-specification:'Tlwg Mono Bold';stroke-width:8"
     id="path5408" /><path
     d="m 194.93315,211.44869 c 0,-12.58667 2.66667,-24.32 8,-35.2 5.54667,-10.88 14.50667,-20.05333 26.88,-27.52 12.37333,-7.68 27.2,-11.52 44.48,-11.52 18.56,0 34.56,5.33333 48,16 l 0.28154,-71.176339 31.71846,-0.183664 V 249.52869 h 5.12 c 14.08,0 21.12,5.33333 21.12,16 0,10.66667 -7.04,16 -21.12,16 h -37.12 v -11.2 c -15.36,10.45333 -31.46667,15.68 -48.32,15.68 -25.38667,0 -44.90667,-7.46667 -58.56,-22.4 -13.65333,-14.93333 -20.48,-32.32 -20.48,-52.16 z m 127.36,0.64 c 0,-4.26667 -0.74667,-8.64 -2.24,-13.12 -1.49333,-4.69333 -3.94667,-9.28 -7.36,-13.76 -3.2,-4.69333 -8.21333,-8.53333 -15.04,-11.52 -6.61333,-2.98667 -14.4,-4.48 -23.36,-4.48 -8.96,0 -16.74667,1.49333 -23.36,4.48 -6.4,2.98667 -11.30667,6.82667 -14.72,11.52 -3.2,4.69333 -5.54667,9.28 -7.04,13.76 -1.49333,4.26667 -2.24,8.42667 -2.24,12.48 0,12.16 4.37333,22.29333 13.12,30.4 8.96,8.10667 20.48,12.16 34.56,12.16 8.96,0 16.74667,-1.49333 23.36,-4.48 6.61333,-2.98667 11.52,-6.82667 14.72,-11.52 3.41333,-4.69333 5.86667,-9.17333 7.36,-13.44 1.49333,-4.48 2.24,-8.64 2.24,-12.48 z"
     style="font-weight:bold;font-size:320px;line-height:1.25;font-family:'Tlwg Mono';-inkscape-font-specification:'Tlwg Mono Bold';stroke-width:8"
     id="path5410"
     sodipodi:nodetypes="sccsccccsssccsssscccscccscssccs" /></g></svg>